# xmcd
#
# Track frame offsets: 
#        150
#        27097
#        48149
#        71674
#        90963
#        112481
#        133498
#        161070
#        182005
#        203022
#
# Disc length: 3022 seconds
#
# Revision: 0
# Processed by: cddbd v1.5.2PL0 Copyright (c) Steve Scherf et al.
# Submitted via: ExactAudioCopy v1.0b3
#
DISCID=8a0bcc0a
DTITLE=Truong Vu, Lam Gia Minh - Tinh Buon Pho Cu
DYEAR=2000
DGENRE=
TTITLE0=Lam Gia Minh - Tieng ca do ve dau
TTITLE1=Truong Vu - Tim dau ngay tho
TTITLE2=Lam Gia Minh - Tinh buon pho cu
TTITLE3=Truong Vu - Xuan tha huong Xuan lac xu
TTITLE4=Lam Gia Minh - Nhan dien thoi gian
TTITLE5=Truong Vu - Huong tinh cu
TTITLE6=Lam Gia Minh - Dem hoang
TTITLE7=Truong Vu - Dang do
TTITLE8=Lam Gia Minh - Nhung con duong tinh su
TTITLE9=Lam Gia Minh - Xin yeu toi bang ca tinh nguoi
EXTD=
EXTT0=
EXTT1=
EXTT2=
EXTT3=
EXTT4=
EXTT5=
EXTT6=
EXTT7=
EXTT8=
EXTT9=
PLAYORDER=
